<svg width="31" height="31" viewBox="0 0 31 31" fill="none" xmlns="http://www.w3.org/2000/svg">
<path d="M7.48612 7.48596C5.63207 9.34001 4.47824 11.7796 4.22124 14.389C3.96423 16.9984 4.61995 19.6162 6.07667 21.7963C7.53339 23.9764 9.70098 25.584 12.2101 26.3452C14.7192 27.1063 17.4146 26.9739 19.8371 25.9705C22.2595 24.9671 24.2591 23.1548 25.4951 20.8423C26.7311 18.5299 27.1271 15.8605 26.6156 13.2888C26.104 10.7172 24.7166 8.40245 22.6898 6.73905C20.6629 5.07566 18.122 4.1665 15.5 4.1665" stroke="#884E1C" stroke-width="2" stroke-linecap="round"/>
<path d="M15.5 15.5L7.75 7.75" stroke="#884E1C" stroke-width="2" stroke-linecap="round"/>
<path d="M15.5 3.875V6.45833" stroke="#884E1C" stroke-width="2" stroke-linecap="round"/>
<path d="M27.125 15.5L24.5417 15.5" stroke="#884E1C" stroke-width="2" stroke-linecap="round"/>
<path d="M15.5 24.5415V27.1248" stroke="#884E1C" stroke-width="2" stroke-linecap="round"/>
<path d="M6.45834 15.5L3.875 15.5" stroke="#884E1C" stroke-width="2" stroke-linecap="round"/>
</svg>
