<svg width="31" height="31" viewBox="0 0 31 31" fill="none" xmlns="http://www.w3.org/2000/svg">
<path d="M24.9626 7.46272L24.1311 8.01829V8.01829L24.9626 7.46272ZM24.9626 20.9536L24.1311 20.398V20.398L24.9626 20.9536ZM23.5371 22.3791L22.9815 21.5476L22.9815 21.5476L23.5371 22.3791ZM18.0833 23.2481L18.079 22.2481C17.5284 22.2505 17.0833 22.6975 17.0833 23.2481H18.0833ZM18.0833 23.2498L18.9778 23.6971C19.0472 23.5582 19.0833 23.4051 19.0833 23.2498H18.0833ZM16.3944 26.6276L17.2889 27.0749L16.3944 26.6276ZM14.6056 26.6276L15.5 26.1804L15.5 26.1804L14.6056 26.6276ZM12.9167 23.2498H11.9167C11.9167 23.4051 11.9528 23.5582 12.0222 23.6971L12.9167 23.2498ZM12.9167 23.2481H13.9167C13.9167 22.6975 13.4716 22.2505 12.921 22.2481L12.9167 23.2481ZM7.46289 22.3791L8.01846 21.5476L8.01846 21.5476L7.46289 22.3791ZM6.03741 20.9536L6.86888 20.398L6.86888 20.398L6.03741 20.9536ZM6.03741 7.46272L6.86888 8.01829L6.03741 7.46272ZM7.46289 6.03724L6.90732 5.20577V5.20577L7.46289 6.03724ZM23.5371 6.03724L22.9815 6.86871V6.86871L23.5371 6.03724ZM26.8333 14.2082C26.8333 12.4149 26.8345 10.9947 26.7194 9.86235C26.6025 8.71334 26.3575 7.75043 25.7941 6.90715L24.1311 8.01829C24.4384 8.47818 24.6288 9.07389 24.7296 10.0648C24.8321 11.0724 24.8333 12.3733 24.8333 14.2082H26.8333ZM25.7941 21.5092C26.3575 20.6659 26.6025 19.703 26.7194 18.554C26.8345 17.4217 26.8333 16.0015 26.8333 14.2082H24.8333C24.8333 16.0431 24.8321 17.344 24.7296 18.3516C24.6288 19.3425 24.4384 19.9382 24.1311 20.398L25.7941 21.5092ZM24.0927 23.2106C24.766 22.7607 25.3442 22.1825 25.7941 21.5092L24.1311 20.398C23.8271 20.853 23.4365 21.2436 22.9815 21.5476L24.0927 23.2106ZM18.0877 24.2481C19.4765 24.242 20.6179 24.2158 21.5654 24.0849C22.5289 23.9517 23.3562 23.7027 24.0927 23.2106L22.9815 21.5476C22.5797 21.8162 22.0735 21.9956 21.2915 22.1037C20.4935 22.214 19.4772 22.242 18.079 22.2481L18.0877 24.2481ZM19.0833 23.2498V23.2481H17.0833V23.2498H19.0833ZM17.2889 27.0749L18.9778 23.6971L17.1889 22.8026L15.5 26.1804L17.2889 27.0749ZM13.7112 27.0749C14.4482 28.549 16.5518 28.549 17.2889 27.0749L15.5 26.1804L15.5 26.1804L13.7112 27.0749ZM12.0222 23.6971L13.7112 27.0749L15.5 26.1804L13.8111 22.8026L12.0222 23.6971ZM11.9167 23.2481V23.2498H13.9167V23.2481H11.9167ZM6.90732 23.2106C7.64384 23.7027 8.4711 23.9517 9.43462 24.0849C10.3821 24.2158 11.5236 24.242 12.9123 24.2481L12.921 22.2481C11.5228 22.242 10.5066 22.214 9.70848 22.1037C8.92647 21.9956 8.42035 21.8162 8.01846 21.5476L6.90732 23.2106ZM5.20594 21.5092C5.65585 22.1825 6.23398 22.7607 6.90732 23.2106L8.01846 21.5476C7.5635 21.2436 7.17288 20.853 6.86888 20.398L5.20594 21.5092ZM4.16667 14.2082C4.16667 16.0015 4.16546 17.4217 4.28065 18.554C4.39753 19.703 4.64248 20.6659 5.20594 21.5092L6.86888 20.398C6.5616 19.9382 6.37118 19.3425 6.27038 18.3516C6.16788 17.344 6.16667 16.0431 6.16667 14.2082H4.16667ZM5.20594 6.90715C4.64248 7.75043 4.39753 8.71334 4.28065 9.86235C4.16546 10.9947 4.16667 12.4149 4.16667 14.2082H6.16667C6.16667 12.3733 6.16788 11.0724 6.27038 10.0648C6.37118 9.07389 6.5616 8.47818 6.86888 8.01829L5.20594 6.90715ZM6.90732 5.20577C6.23398 5.65569 5.65585 6.23381 5.20594 6.90715L6.86888 8.01829C7.17288 7.56334 7.5635 7.17271 8.01846 6.86871L6.90732 5.20577ZM14.2083 4.1665C12.4151 4.1665 10.9948 4.1653 9.86252 4.28048C8.71351 4.39737 7.7506 4.64232 6.90732 5.20577L8.01846 6.86871C8.47834 6.56143 9.07406 6.37101 10.0649 6.27021C11.0725 6.16771 12.3734 6.1665 14.2083 6.1665V4.1665ZM16.7917 4.1665H14.2083V6.1665H16.7917V4.1665ZM24.0927 5.20577C23.2494 4.64232 22.2865 4.39737 21.1375 4.28048C20.0052 4.1653 18.585 4.1665 16.7917 4.1665V6.1665C18.6266 6.1665 19.9275 6.16771 20.9351 6.27021C21.926 6.37101 22.5217 6.56143 22.9815 6.86871L24.0927 5.20577ZM25.7941 6.90716C25.3442 6.23381 24.766 5.65569 24.0927 5.20577L22.9815 6.86871C23.4365 7.17271 23.8271 7.56334 24.1311 8.01829L25.7941 6.90716Z" fill="#884E1C"/>
<ellipse cx="20.6667" cy="14.2082" rx="1.29167" ry="1.29167" fill="#884E1C" stroke="#884E1C" stroke-linecap="round"/>
<ellipse cx="15.5" cy="14.2082" rx="1.29167" ry="1.29167" fill="#884E1C" stroke="#884E1C" stroke-linecap="round"/>
<ellipse cx="10.3333" cy="14.2082" rx="1.29167" ry="1.29167" fill="#884E1C" stroke="#884E1C" stroke-linecap="round"/>
</svg>
