<svg width="31" height="31" viewBox="0 0 31 31" fill="none" xmlns="http://www.w3.org/2000/svg">
<mask id="path-1-outside-1_118_10" maskUnits="userSpaceOnUse" x="9.62476" y="2.16667" width="11" height="7" fill="black">
<rect fill="white" x="9.62476" y="2.16667" width="11" height="7"/>
<path d="M16.8136 6.45834H13.4859C13.148 6.45834 12.979 6.45834 12.8561 6.38003C12.7945 6.3408 12.7423 6.28857 12.7031 6.22699C12.6248 6.10408 12.6248 5.93513 12.6248 5.59723C12.6248 5.42828 12.6248 5.3438 12.6639 5.28235C12.6835 5.25156 12.7096 5.22544 12.7404 5.20582C12.8019 5.16667 12.8864 5.16667 13.0553 5.16667H17.2441C17.4131 5.16667 17.4975 5.16667 17.559 5.20582C17.5898 5.22544 17.6159 5.25156 17.6355 5.28235C17.6747 5.3438 17.6747 5.42828 17.6747 5.59723C17.6747 5.93513 17.6747 6.10408 17.5964 6.22699C17.5571 6.28857 17.5049 6.3408 17.4433 6.38003C17.3204 6.45834 17.1514 6.45834 16.8136 6.45834Z"/>
</mask>
<path d="M12.7031 6.22699L14.3898 5.15239L14.3898 5.15239L12.7031 6.22699ZM12.8561 6.38003L11.7815 8.06682L11.7815 8.06682L12.8561 6.38003ZM17.5964 6.22699L19.2831 7.30159L19.2831 7.30159L17.5964 6.22699ZM17.4433 6.38003L18.5179 8.06682L18.5179 8.06681L17.4433 6.38003ZM17.6355 5.28235L19.3223 4.20775L19.3223 4.20774L17.6355 5.28235ZM17.559 5.20582L16.4844 6.89261L16.4844 6.89261L17.559 5.20582ZM12.6639 5.28235L10.9771 4.20775L10.9771 4.20775L12.6639 5.28235ZM12.7404 5.20582L11.6658 3.51904L11.6658 3.51904L12.7404 5.20582ZM13.4859 8.45834H16.8136V4.45834H13.4859V8.45834ZM17.2441 3.16667H13.0553V7.16667H17.2441V3.16667ZM10.6248 5.59723C10.6248 5.72617 10.6225 5.9678 10.6441 6.18787C10.6687 6.43929 10.7385 6.86558 11.0163 7.30159L14.3898 5.15239C14.5893 5.46549 14.6199 5.74584 14.625 5.79759C14.6275 5.82342 14.6264 5.82634 14.6256 5.78341C14.6248 5.74072 14.6248 5.68717 14.6248 5.59723H10.6248ZM13.4859 4.45834C13.3959 4.45834 13.3424 4.45827 13.2997 4.45747C13.2568 4.45666 13.2597 4.45556 13.2855 4.45809C13.3373 4.46317 13.6176 4.49379 13.9307 4.69325L11.7815 8.06682C12.2175 8.34459 12.6438 8.41436 12.8952 8.43901C13.1153 8.46058 13.3569 8.45834 13.4859 8.45834V4.45834ZM11.0163 7.30159C11.2124 7.60948 11.4736 7.87067 11.7815 8.06682L13.9307 4.69325C14.1154 4.81094 14.2722 4.96766 14.3898 5.15239L11.0163 7.30159ZM15.6747 5.59723C15.6747 5.68717 15.6746 5.74072 15.6738 5.78341C15.673 5.82634 15.6719 5.82342 15.6744 5.79759C15.6795 5.74584 15.7101 5.46549 15.9096 5.15239L19.2831 7.30159C19.5609 6.86558 19.6307 6.43929 19.6553 6.18787C19.6769 5.9678 19.6747 5.72617 19.6747 5.59723H15.6747ZM16.8136 8.45834C16.9425 8.45834 17.1841 8.46058 17.4042 8.43901C17.6556 8.41436 18.0819 8.34459 18.5179 8.06682L16.3687 4.69325C16.6818 4.49379 16.9622 4.46317 17.0139 4.45809C17.0397 4.45556 17.0427 4.45666 16.9997 4.45747C16.957 4.45827 16.9035 4.45834 16.8136 4.45834V8.45834ZM15.9096 5.15239C16.0273 4.96766 16.184 4.81094 16.3687 4.69325L18.5179 8.06681C18.8258 7.87067 19.087 7.60947 19.2831 7.30159L15.9096 5.15239ZM19.6747 5.59723C19.6747 5.55276 19.6769 5.37449 19.6602 5.20434C19.6405 5.00284 19.5805 4.61303 19.3223 4.20775L15.9487 6.35695C15.7297 6.01312 15.6893 5.69628 15.6793 5.59462C15.6743 5.54382 15.6742 5.51258 15.6744 5.52287C15.6746 5.53293 15.6747 5.54952 15.6747 5.59723H19.6747ZM17.2441 7.16667C17.2918 7.16667 17.3084 7.16674 17.3185 7.16693C17.3288 7.16713 17.2975 7.167 17.2467 7.16202C17.1451 7.15206 16.8282 7.11165 16.4844 6.89261L18.6336 3.51904C18.2283 3.26085 17.8385 3.20086 17.637 3.18111C17.4668 3.16443 17.2886 3.16667 17.2441 3.16667V7.16667ZM19.3223 4.20774C19.1458 3.93065 18.9107 3.69558 18.6336 3.51904L16.4844 6.89261C16.2689 6.7553 16.086 6.57246 15.9487 6.35695L19.3223 4.20774ZM14.6248 5.59723C14.6248 5.54952 14.6248 5.53293 14.625 5.52287C14.6252 5.51258 14.6251 5.54382 14.6201 5.59462C14.6101 5.69628 14.5697 6.01312 14.3507 6.35695L10.9771 4.20775C10.7189 4.61303 10.6589 5.00284 10.6392 5.20434C10.6225 5.37449 10.6248 5.55276 10.6248 5.59723H14.6248ZM13.0553 3.16667C13.0108 3.16667 12.8326 3.16443 12.6624 3.18111C12.4609 3.20086 12.0711 3.26085 11.6658 3.51904L13.815 6.89261C13.4712 7.11165 13.1544 7.15206 13.0527 7.16202C13.0019 7.167 12.9707 7.16713 12.981 7.16693C12.991 7.16674 13.0076 7.16667 13.0553 7.16667V3.16667ZM14.3507 6.35695C14.2134 6.57247 14.0306 6.7553 13.815 6.89261L11.6658 3.51904C11.3887 3.69557 11.1537 3.93065 10.9771 4.20775L14.3507 6.35695Z" fill="#884E1C" mask="url(#path-1-outside-1_118_10)"/>
<rect x="7.57483" y="3.875" width="15.1497" height="23.25" rx="2" stroke="#884E1C" stroke-width="2"/>
<ellipse cx="15.1497" cy="23.25" rx="1.26248" ry="1.29167" fill="#884E1C"/>
</svg>
