<svg width="32" height="31" viewBox="0 0 32 31" fill="none" xmlns="http://www.w3.org/2000/svg">
<path d="M26.0395 14.854C26.0395 21.5284 18.0212 25.9658 16.1111 26.9281C15.8533 27.058 15.5591 27.058 15.3013 26.9281C13.3913 25.9658 5.37288 21.5284 5.37288 14.854C5.37288 9.0415 10.3797 5.1665 15.7062 5.1665C21.2173 5.1665 26.0395 9.0415 26.0395 14.854Z" stroke="#884E1C" stroke-width="2"/>
<path d="M11.7926 15.2553L15.4426 19.0973C15.5663 19.2276 15.6281 19.2927 15.7062 19.2927C15.7843 19.2927 15.8461 19.2276 15.9698 19.0973L19.6198 15.2553C20.3565 14.4798 20.4717 13.3028 19.8994 12.3992C18.9463 10.8943 16.7266 10.9689 15.8767 12.5345L15.7868 12.7001C15.7521 12.764 15.6603 12.764 15.6256 12.7001L15.5357 12.5345C14.6859 10.9689 12.4661 10.8943 11.513 12.3992C10.9407 13.3028 11.0559 14.4798 11.7926 15.2553Z" stroke="#884E1C" stroke-width="2"/>
</svg>
