<svg id="visual" viewBox="0 0 960 540" width="960" height="540" xmlns="http://www.w3.org/2000/svg" xmlns:xlink="http://www.w3.org/1999/xlink" version="1.1"><rect x="0" y="0" width="960" height="540" fill="#fffcf9"></rect><path d="M440 540L440.2 525C440.3 510 440.7 480 461.2 450C481.7 420 522.3 390 525.3 360C528.3 330 493.7 300 469 270C444.3 240 429.7 210 440.3 180C451 150 487 120 485.7 90C484.3 60 445.7 30 426.3 15L407 0L960 0L960 15C960 30 960 60 960 90C960 120 960 150 960 180C960 210 960 240 960 270C960 300 960 330 960 360C960 390 960 420 960 450C960 480 960 510 960 525L960 540Z" fill="#ffad64" stroke-linecap="round" stroke-linejoin="miter"></path></svg>